<svg width="72" height="92" viewBox="0 0 72 92" fill="none" xmlns="http://www.w3.org/2000/svg">
<path d="M4.224 91.2158V77.7758L38.784 45.1358C41.5147 42.6612 43.52 40.4425 44.8 38.4798C46.08 36.5171 46.9333 34.7251 47.36 33.1038C47.872 31.4825 48.128 29.9892 48.128 28.6238C48.128 25.0398 46.8907 22.3092 44.416 20.4318C42.0267 18.4691 38.4853 17.4878 33.792 17.4878C30.0373 17.4878 26.5387 18.2132 23.296 19.6638C20.1387 21.1145 17.4507 23.3758 15.232 26.4478L0.128 16.7198C3.54133 11.5998 8.32 7.54648 14.464 4.55981C20.608 1.57315 27.6907 0.0798187 35.712 0.0798187C42.368 0.0798187 48.1707 1.18915 53.12 3.40781C58.1547 5.54115 62.0373 8.57049 64.768 12.4958C67.584 16.4212 68.992 21.1145 68.992 26.5758C68.992 29.4772 68.608 32.3785 67.84 35.2798C67.1573 38.0958 65.7067 41.0825 63.488 44.2398C61.3547 47.3972 58.1973 50.9385 54.016 54.8638L25.344 81.8718L21.376 74.3198H71.936V91.2158H4.224Z" fill="#522E92"/>
</svg>
