<svg width="73" height="92" viewBox="0 0 73 92" fill="none" xmlns="http://www.w3.org/2000/svg">
<path d="M35.048 91.3202C28.8187 91.3202 22.632 90.5095 16.488 88.8882C10.344 87.1815 5.13867 84.7922 0.872 81.7202L8.936 65.8482C12.3493 68.3228 16.3173 70.2855 20.84 71.7362C25.3627 73.1868 29.928 73.9122 34.536 73.9122C39.7413 73.9122 43.8373 72.8882 46.824 70.8402C49.8107 68.7922 51.304 65.9762 51.304 62.3922C51.304 58.9788 49.9813 56.2908 47.336 54.3282C44.6907 52.3655 40.424 51.3842 34.536 51.3842H25.064V37.6882L50.024 9.40018L52.328 16.8242H5.352V0.184174H68.072V13.6242L43.24 41.9122L32.744 35.8962H38.76C49.768 35.8962 58.088 38.3708 63.72 43.3202C69.352 48.2695 72.168 54.6268 72.168 62.3922C72.168 67.4268 70.8453 72.1628 68.2 76.6002C65.5547 80.9522 61.5013 84.4935 56.04 87.2242C50.5787 89.9548 43.5813 91.3202 35.048 91.3202Z" fill="#522E92"/>
</svg>
