<svg width="40" height="41" viewBox="0 0 40 41" fill="none" xmlns="http://www.w3.org/2000/svg">
<path fill-rule="evenodd" clip-rule="evenodd" d="M17.4316 21.0917V33.1944C17.4316 33.3778 17.5474 33.5 17.7211 33.5H22.0053C22.1789 33.5 22.2947 33.3778 22.2947 33.1944V20.9083H25.3632C25.5368 20.9083 25.6526 20.7861 25.6526 20.6027L25.9421 16.8741C25.9421 16.6907 25.8263 16.5073 25.6526 16.5073H22.2947V13.9401C22.2947 13.3289 22.7579 12.8399 23.3368 12.8399H25.7105C25.8842 12.8399 26 12.7176 26 12.5342V8.80562C26 8.62225 25.8842 8.5 25.7105 8.5H21.7158C19.3421 8.5 17.4316 10.5171 17.4316 13.0232V16.5685H15.2895C15.1158 16.5685 15 16.6907 15 16.8741V20.6027C15 20.7861 15.1158 20.9083 15.2895 20.9083H17.4316V21.0917Z" fill="#FBF9FF"/>
</svg>
