<svg width="40" height="41" viewBox="0 0 40 41" fill="none" xmlns="http://www.w3.org/2000/svg">
<path d="M9.03284 17.1471H13.3621V30.5H9.03284V17.1471ZM11.167 10.5C12.5694 10.5 13.667 11.5588 13.667 12.9118C13.667 14.2647 12.5694 15.3235 11.167 15.3235C9.76455 15.3235 8.66699 14.2647 8.66699 12.9118C8.66699 11.5588 9.82552 10.5 11.167 10.5Z" fill="#FBF9FF"/>
<path d="M16.667 16.8605H20.667V18.7232H20.7258C21.2552 17.6416 22.667 16.5 24.667 16.5C28.9023 16.5 29.667 19.324 29.667 22.9893V30.5H25.4905V23.8305C25.4905 22.2682 25.4317 20.2253 23.3141 20.2253C21.1376 20.2253 20.8435 21.9678 20.8435 23.7103V30.4399H16.667V16.8605Z" fill="#FBF9FF"/>
</svg>
