<svg width="113" height="14" viewBox="0 0 113 14" fill="none" xmlns="http://www.w3.org/2000/svg">
<path d="M1.85207 2.54275C2.98207 1.40628 4.57424 0.66626 6.33365 0.66626C9.29651 0.66626 11.63 2.47007 12.3701 5.32225H10.518C9.83326 3.42704 8.24109 2.47117 6.33365 2.47117C5.09291 2.47117 3.96291 2.99425 3.14818 3.82458C2.33345 4.6538 1.81478 5.77265 1.81478 7.0732C1.81478 8.3363 2.33345 9.45515 3.14818 10.2844C3.96291 11.1147 5.09178 11.6378 6.33365 11.6378C8.29646 11.6378 9.96321 10.5377 10.6299 8.62483H12.4628C11.7226 11.4935 9.35188 13.4427 6.33365 13.4427C4.57424 13.4427 2.98207 12.7214 1.85207 11.5651C0.74128 10.411 0 8.82305 0 7.0721C0 5.28591 0.74128 3.69794 1.85207 2.54275Z" fill="#2B0A64"/>
<path d="M16.5007 6.94545H18.6861C20.2602 6.94545 21.0377 5.84422 21.0377 4.7441C21.0377 3.66049 20.2602 2.56037 18.6861 2.56037H15.8159V13.3513H13.9639V0.720215H18.6861C21.501 0.720215 22.9078 2.74207 22.9078 4.7441C22.9078 6.53029 21.7778 8.22728 19.5562 8.6061L23.648 13.3524H21.223L16.5007 7.81212V6.94545Z" fill="#2B0A64"/>
<path d="M28.926 0.738892C33.1669 0.738892 35.2958 3.89721 35.2958 7.05443C35.2958 10.2116 33.1669 13.3523 28.926 13.3523H24.2783V0.738892H28.926ZM28.926 11.5298C31.9262 11.5298 33.4449 9.29212 33.4449 7.05443C33.4449 4.81673 31.9262 2.56142 28.926 2.56142H26.1485V11.5298H28.926Z" fill="#2B0A64"/>
<path d="M38.3897 13.3524H36.5195V0.738953H44.2408V2.56148H38.3897V6.11514H43.5741V7.95639H38.3897V13.3524Z" fill="#2B0A64"/>
<path d="M55.7598 5.24955C55.2422 3.21007 53.241 2.47115 51.5934 2.47115C49.0566 2.47115 47.0938 4.4016 47.0938 7.05446C47.0938 9.72493 49.0566 11.6928 51.5934 11.6928C53.1856 11.6928 54.8897 10.9715 55.6671 9.13027H50.8714V7.30664H57.8525C57.7599 8.37152 57.6672 9.07521 57.5011 9.49037V9.47165C56.6118 11.8899 53.945 13.4427 51.5946 13.4427C47.965 13.4427 45.2236 10.7711 45.2236 7.05446C45.2236 3.3191 48.0193 0.648621 51.5946 0.648621C54.0761 0.648621 57.0762 1.89411 57.761 5.24955H55.7598Z" fill="#2B0A64"/>
<path d="M61.4082 11.5298H67.5012V13.3523H59.5381V0.738892H61.4082V11.5298Z" fill="#2B0A64"/>
<path d="M87.9261 0.738953C89.5555 0.738953 90.5929 1.64086 91.0743 2.81366C91.5918 4.05805 91.4257 5.50286 90.1296 6.40476C91.611 7.01815 92.1478 8.35394 92.1478 9.54436C92.1478 11.4396 90.8709 13.3524 88.3894 13.3524H82.5371V0.738953H87.9261ZM84.3892 5.75504H87.8888C89.9262 5.75504 89.9635 2.47118 87.9261 2.47118H84.3892V5.75504ZM84.3892 11.5838H88.3894C89.6482 11.5838 90.2776 10.5553 90.2776 9.56308C90.2776 8.57088 89.6482 7.55995 88.3894 7.55995H84.3892V11.5838Z" fill="#2B0A64"/>
<path d="M100.63 9.63466H95.9824C95.4829 10.7887 94.8343 12.3051 94.4275 13.3513H92.4082L97.6119 0.557251H98.9814L104.185 13.3524H102.186L100.63 9.63466ZM96.6864 7.92116H99.908L98.3158 3.46339L96.6864 7.92116Z" fill="#2B0A64"/>
<path d="M106.908 11.5299H113V13.3524H105.038V0.738953H106.908V11.5299Z" fill="#2B0A64"/>
<path d="M73.9556 0.626587C73.1906 0.626587 72.2279 0.975676 71.4244 1.42828C68.3689 3.1473 67.3225 6.95424 69.0865 9.93195C69.0865 9.93195 67.7395 5.70985 74.6189 4.64496C75.8495 4.45445 76.6405 4.20227 77.1083 3.91595C77.0507 3.35543 76.8993 2.85217 76.6552 2.40727C75.9252 1.07479 74.7206 0.626587 73.9556 0.626587Z" fill="#2B0A64"/>
<path d="M80.7102 9.38905C81.0921 8.74373 81.2639 7.75703 81.2639 6.85292C81.2639 3.41489 78.4038 0.626587 74.876 0.626587C74.876 0.626587 79.3011 1.60227 76.8094 7.93984C76.3631 9.0741 76.1913 9.86698 76.2116 10.4055C76.7382 10.6367 77.2614 10.7612 77.7778 10.7777C79.3293 10.8273 80.3282 10.0344 80.7102 9.38905Z" fill="#2B0A64"/>
<path d="M69.5471 10.7094C69.9291 11.3547 70.7212 11.9924 71.5235 12.445C74.579 14.164 78.4866 13.1431 80.2494 10.1654C80.2494 10.1654 77.1701 13.4129 72.7846 8.14026C72.0004 7.19651 71.3811 6.65581 70.893 6.40363C70.424 6.73289 70.0511 7.11171 69.7788 7.54009C68.9607 8.82412 69.1652 10.0641 69.5471 10.7094Z" fill="#2B0A64"/>
</svg>
