<svg width="166" height="31" viewBox="0 0 166 31" fill="none" xmlns="http://www.w3.org/2000/svg">
<path d="M3.20435 9.84906C4.85435 8.2185 7.1792 7.15674 9.74825 7.15674C14.0745 7.15674 17.4818 9.74478 18.5625 13.837H15.8582C14.8583 11.1178 12.5334 9.74636 9.74825 9.74636C7.93655 9.74636 6.28655 10.4969 5.0969 11.6882C3.90725 12.8779 3.1499 14.4832 3.1499 16.3492C3.1499 18.1614 3.90725 19.7667 5.0969 20.9565C6.28655 22.1478 7.9349 22.8983 9.74825 22.8983C12.6143 22.8983 15.048 21.3199 16.0215 18.5754H18.6978C17.6171 22.6913 14.1554 25.4879 9.74825 25.4879C7.1792 25.4879 4.85435 24.453 3.20435 22.794C1.5824 21.1382 0.5 18.8598 0.5 16.3476C0.5 13.7848 1.5824 11.5065 3.20435 9.84906Z" fill="white"/>
<path d="M24.5929 16.1656H27.784C30.0825 16.1656 31.2177 14.5856 31.2177 13.0072C31.2177 11.4525 30.0825 9.87407 27.784 9.87407H23.593V25.3565H20.8887V7.23389H27.784C31.8942 7.23389 33.9484 10.1348 33.9484 13.0072C33.9484 15.57 32.2984 18.0047 29.0545 18.5483L35.0292 25.3581H31.4883L24.5929 17.4091V16.1656Z" fill="white"/>
<path d="M42.7366 7.26074C48.9291 7.26074 52.0377 11.7922 52.0377 16.322C52.0377 20.8519 48.9291 25.3581 42.7366 25.3581H35.9502V7.26074H42.7366ZM42.7366 22.7432C47.1174 22.7432 49.335 19.5326 49.335 16.322C49.335 13.1115 47.1174 9.87564 42.7366 9.87564H38.6809V22.7432H42.7366Z" fill="white"/>
<path d="M56.555 25.3581H53.8242V7.26074H65.0987V9.87564H56.555V14.9743H64.1252V17.6161H56.555V25.3581Z" fill="white"/>
<path d="M81.9188 13.7321C81.1631 10.8059 78.2409 9.74576 75.8352 9.74576C72.131 9.74576 69.2649 12.5155 69.2649 16.3217C69.2649 20.1532 72.131 22.9767 75.8352 22.9767C78.1601 22.9767 80.6483 21.9418 81.7835 19.3H74.7809V16.6835H84.9746C84.8393 18.2114 84.704 19.221 84.4614 19.8167V19.7898C83.1629 23.2595 79.2689 25.4873 75.8369 25.4873C70.5371 25.4873 66.5342 21.6542 66.5342 16.3217C66.5342 10.9624 70.6163 7.13086 75.8369 7.13086C79.4603 7.13086 83.841 8.91784 84.8409 13.7321H81.9188Z" fill="white"/>
<path d="M90.1663 22.7432H99.0631V25.3581H87.4355V7.26074H90.1663V22.7432Z" fill="white"/>
<path d="M128.888 7.26074C131.268 7.26074 132.782 8.55476 133.485 10.2375C134.241 12.0229 133.998 14.0958 132.106 15.3898C134.269 16.2699 135.053 18.1864 135.053 19.8944C135.053 22.6136 133.188 25.3581 129.565 25.3581H121.02V7.26074H128.888ZM123.724 14.4576H128.834C131.809 14.4576 131.863 9.74608 128.888 9.74608H123.724V14.4576ZM123.724 22.8206H129.565C131.403 22.8206 132.322 21.3449 132.322 19.9213C132.322 18.4977 131.403 17.0473 129.565 17.0473H123.724V22.8206Z" fill="white"/>
<path d="M147.437 20.0239H140.651C139.921 21.6798 138.974 23.8554 138.38 25.3564H135.432L143.03 7H145.03L152.628 25.358H149.709L147.437 20.0239ZM141.679 17.5655H146.383L144.058 11.1696L141.679 17.5655Z" fill="white"/>
<path d="M156.605 22.7432H165.5V25.3581H153.874V7.26074H156.605V22.7432Z" fill="white"/>
<path d="M108.487 7.09912C107.37 7.09912 105.964 7.59998 104.791 8.24936C100.33 10.7157 98.8016 16.1778 101.377 20.4501C101.377 20.4501 99.4105 14.3924 109.456 12.8645C111.253 12.5912 112.408 12.2294 113.091 11.8186C113.006 11.0144 112.785 10.2923 112.429 9.65398C111.363 7.74218 109.604 7.09912 108.487 7.09912Z" fill="white"/>
<path d="M118.351 19.6712C118.909 18.7453 119.159 17.3296 119.159 16.0324C119.159 11.0997 114.983 7.09912 109.832 7.09912C109.832 7.09912 116.293 8.499 112.655 17.5919C112.003 19.2193 111.753 20.3569 111.782 21.1295C112.551 21.4613 113.315 21.6399 114.069 21.6636C116.335 21.7347 117.793 20.5971 118.351 19.6712Z" fill="white"/>
<path d="M102.051 21.566C102.608 22.4919 103.765 23.4067 104.936 24.0561C109.398 26.5224 115.104 25.0578 117.678 20.7855C117.678 20.7855 113.181 25.4449 106.778 17.8798C105.633 16.5258 104.729 15.75 104.016 15.3882C103.331 15.8606 102.786 16.4041 102.389 17.0187C101.194 18.861 101.493 20.6401 102.051 21.566Z" fill="white"/>
</svg>
