<svg width="158" height="32" viewBox="0 0 158 32" fill="none" xmlns="http://www.w3.org/2000/svg">
<path d="M42.8901 3.76709H30.7842V5.63154H35.8755V18.7968H37.8743V5.63154H42.8901V3.76709Z" fill="white"/>
<path d="M138.795 18.7965V8.52302H140.718V18.7965H138.795ZM140.982 5.21268C140.982 5.89758 140.454 6.46833 139.738 6.46833C139.021 6.46833 138.493 5.89758 138.493 5.21268C138.493 4.52778 138.983 3.95703 139.738 3.95703C140.454 3.99508 140.982 4.52778 140.982 5.21268Z" fill="white"/>
<path d="M152.598 18.7964L148.789 13.4694L152.409 8.52295H150.146L147.62 12.0996L145.055 8.52295H142.717L146.413 13.5075L142.528 18.7964H144.791L147.506 14.9153L150.26 18.7964H152.598Z" fill="white"/>
<path d="M7.74117 5.55525C7.74117 4.3757 8.684 3.3864 9.89082 3.3864H21.2802C21.0539 2.01661 19.8471 0.989258 18.414 0.989258H8.26915C6.6852 0.989258 5.36523 2.28296 5.36523 3.9191V14.1545C5.36523 15.6004 6.38349 16.78 7.74117 17.0463V5.55525Z" fill="white"/>
<path d="M22.7132 4.87012V16.3612C22.7132 17.5407 21.7704 18.53 20.5636 18.53H9.21191C9.43819 19.8998 10.645 20.9272 12.0781 20.9272H22.223C23.8069 20.9272 25.1269 19.6335 25.1269 17.9973V7.76191C25.1269 6.31601 24.0709 5.09842 22.7132 4.87012Z" fill="white"/>
<path d="M17.735 15.2199H12.7569C11.7764 15.2199 10.9844 14.4209 10.9844 13.4316V6.65869H17.6973C18.6779 6.65869 19.4698 7.45774 19.4698 8.44704V13.4316C19.5076 14.4209 18.6779 15.2199 17.735 15.2199Z" fill="white"/>
<path d="M58.2765 17.1225C56.3155 17.1225 54.9578 15.5625 54.9578 13.66C54.9578 11.7575 56.24 10.1974 58.2765 10.1974C59.4079 10.1974 60.3131 10.5779 60.9165 11.3389L62.1987 10.0452C61.2559 8.97982 59.8982 8.29492 58.3143 8.29492C55.2218 8.29492 52.959 10.654 52.959 13.6219C52.959 16.5898 55.2218 18.987 58.2765 18.987C59.8605 18.987 61.2559 18.3401 62.1987 17.2367L60.9165 15.943C60.3508 16.704 59.4079 17.1225 58.2765 17.1225Z" fill="white"/>
<path d="M92.2937 8.29492C89.2013 8.29492 86.9385 10.654 86.9385 13.6219C86.9385 16.5898 89.2013 18.987 92.256 18.987C95.2354 18.987 97.5736 16.6279 97.5736 13.6219C97.5736 10.5779 95.2731 8.29492 92.2937 8.29492ZM92.256 17.1225C90.295 17.1225 88.9373 15.5625 88.9373 13.66C88.9373 11.7575 90.2195 10.1974 92.256 10.1974C94.2171 10.1974 95.6125 11.6814 95.6125 13.6219C95.6125 15.5244 94.2926 17.1225 92.256 17.1225Z" fill="white"/>
<path d="M51.4504 14.3829C51.4881 14.1546 51.5636 13.6599 51.5636 13.4316C51.6013 10.6159 49.8288 8.37098 46.8494 8.29488C43.7192 8.25683 41.4941 10.654 41.4941 13.6219C41.4941 16.5898 43.7569 18.9869 46.8117 18.9869C48.5465 18.9869 49.9419 18.3781 50.9224 17.1986L49.6402 15.9049C49.1499 16.5898 48.0939 17.1605 46.7363 17.1225C44.8506 17.0844 43.6815 15.9049 43.4175 14.3448C44.0964 14.3829 51.4504 14.3829 51.4504 14.3829ZM46.6231 10.0832C48.5465 10.0832 49.4516 11.2247 49.6779 12.7467H43.4929C43.7569 11.2628 44.7752 10.1213 46.6231 10.0832Z" fill="white"/>
<path d="M125.783 8.52312V9.93096C124.916 8.75142 123.634 8.33287 122.653 8.29482C119.523 8.18067 117.411 10.6539 117.411 13.6218C117.411 16.5136 119.41 19.101 122.653 18.9868C123.822 18.9488 125.029 18.4161 125.783 17.3888V18.7966H127.745V8.52312H125.783ZM122.616 17.1605C120.692 17.1224 119.41 15.5624 119.41 13.6218C119.41 11.7193 120.692 10.1212 122.616 10.1212C125.67 10.1212 125.897 12.975 125.897 13.6218C125.897 15.8287 124.577 17.1985 122.616 17.1605Z" fill="white"/>
<path d="M134.269 16.9704C134.043 16.7801 133.929 16.3996 133.929 15.8669V10.3116H136.758V8.52328H133.929V4.22363H132.006V8.52328H129.856V10.3116H132.006V16.2474C132.006 17.1226 132.27 17.8455 132.798 18.3021C134.193 19.4817 136.532 18.8729 136.72 18.7968V17.0084C136.532 17.1226 134.948 17.5792 134.269 16.9704Z" fill="white"/>
<path d="M81.0183 8.29492C79.0949 8.29492 78.0766 9.43642 77.7749 9.85497V8.52322H75.8516V18.7967H77.7749V12.7848C77.7749 11.5292 78.6046 10.1213 80.4149 10.1213C82.4514 10.1213 83.0171 11.8336 83.0171 12.7848V18.7587H84.9404V12.4043C85.0159 10.8062 83.809 8.29492 81.0183 8.29492Z" fill="white"/>
<path d="M69.2888 8.29464C67.3654 8.29464 66.3472 9.43613 66.0454 9.85468V3.34814H64.1221V18.7964H66.0454V12.7845C66.0454 11.5289 66.8751 10.121 68.6854 10.121C70.7219 10.121 71.2876 11.8333 71.2876 12.7845V18.7584H73.211V12.404C73.2487 10.4635 72.0796 8.29464 69.2888 8.29464Z" fill="white"/>
<path d="M81.9225 28.3473V22.8301H81.0928V29.1083H81.6585H81.9225H84.9772V28.3473H81.9225Z" fill="white"/>
<path d="M128.121 29.1082V22.6777H128.913V29.1082H128.121Z" fill="white"/>
<path d="M124.992 24.7324C123.709 24.7324 122.767 25.7217 122.767 26.9393C122.767 28.195 123.709 29.1843 124.992 29.1843C126.236 29.1843 127.217 28.195 127.217 26.9393C127.217 25.6837 126.236 24.7324 124.992 24.7324ZM124.992 28.4233C124.162 28.4233 123.596 27.7764 123.596 26.9774C123.596 26.1783 124.124 25.5315 124.992 25.5315C125.821 25.5315 126.387 26.1403 126.387 26.9393C126.387 27.7384 125.859 28.4233 124.992 28.4233Z" fill="white"/>
<path d="M142.076 24.7324C140.793 24.7324 139.851 25.7217 139.851 26.9393C139.851 28.195 140.793 29.1843 142.076 29.1843C143.32 29.1843 144.301 28.195 144.301 26.9393C144.263 25.6837 143.32 24.7324 142.076 24.7324ZM142.038 28.4233C141.208 28.4233 140.643 27.7764 140.643 26.9774C140.643 26.1783 141.171 25.5315 142.038 25.5315C142.868 25.5315 143.433 26.1403 143.433 26.9393C143.433 27.7384 142.905 28.4233 142.038 28.4233Z" fill="white"/>
<path d="M80.0371 27.2818C80.0748 27.2057 80.0748 26.9774 80.0748 26.8633C80.0748 25.6837 79.3583 24.7325 78.1138 24.7325C76.7938 24.6944 75.8887 25.7218 75.8887 26.9394C75.8887 28.195 76.8315 29.1843 78.1138 29.1843C78.8303 29.1843 79.4337 28.918 79.8486 28.4614L79.3206 27.9287C79.0943 28.2331 78.6795 28.4614 78.1138 28.4233C77.3218 28.3853 76.8315 27.9287 76.7184 27.2438C76.9446 27.2818 80.0371 27.2818 80.0371 27.2818ZM78.0006 25.4935C78.7926 25.4935 79.1697 25.9881 79.2829 26.5969H76.6807C76.8315 25.9501 77.2463 25.4935 78.0006 25.4935Z" fill="white"/>
<path d="M89.5781 27.2818C89.6159 27.2057 89.6159 26.9774 89.6159 26.8633C89.6159 25.6837 88.8993 24.7325 87.6548 24.7325C86.3348 24.6944 85.4297 25.7218 85.4297 26.9394C85.4297 28.195 86.3725 29.1843 87.6548 29.1843C88.3713 29.1843 88.9747 28.918 89.3896 28.4614L88.8616 27.9287C88.6353 28.2331 88.2205 28.4614 87.6548 28.4233C86.8628 28.3853 86.3725 27.9287 86.2594 27.2438C86.5234 27.2818 89.5781 27.2818 89.5781 27.2818ZM87.5793 25.4935C88.3713 25.4935 88.7485 25.9881 88.8616 26.5969H86.2594C86.3725 25.9501 86.7874 25.4935 87.5793 25.4935Z" fill="white"/>
<path d="M93.7274 24.8085V25.3793C93.3503 24.8846 92.8223 24.7324 92.4452 24.6944C91.1252 24.6563 90.2578 25.6837 90.2578 26.9013C90.2578 28.1189 91.0875 29.1843 92.4452 29.1462C92.9355 29.1462 93.4257 28.9179 93.7651 28.4613V29.0321H94.5948V24.8085H93.7274ZM92.4075 28.4233C91.6155 28.4233 91.0498 27.7384 91.0498 26.9393C91.0498 26.1403 91.5778 25.4934 92.4075 25.4934C93.6897 25.4934 93.7651 26.673 93.7651 26.9393C93.7651 27.8906 93.1994 28.4613 92.4075 28.4233Z" fill="white"/>
<path d="M136.154 28.2709C136.079 28.1948 136.003 28.0426 136.003 27.8143V25.5314H137.173V24.8084H136.003V23.0581H135.212V24.8084H134.382V25.5314H135.249V27.9665C135.249 28.347 135.362 28.6134 135.589 28.8036C136.154 29.2983 137.135 29.0319 137.21 28.9939V28.2709C137.097 28.309 136.456 28.4992 136.154 28.2709Z" fill="white"/>
<path d="M138.116 29.1084V24.8087H138.908V29.1084H138.116ZM139.021 23.4389C139.021 23.7433 138.795 23.9716 138.493 23.9716C138.191 23.9716 137.965 23.7433 137.965 23.4389C137.965 23.1345 138.153 22.9062 138.493 22.9062C138.832 22.9443 139.021 23.1726 139.021 23.4389Z" fill="white"/>
<path d="M104.211 29.1084V24.8087H105.003V29.1084H104.211ZM105.117 23.4389C105.117 23.7433 104.89 23.9716 104.589 23.9716C104.287 23.9716 104.061 23.7433 104.061 23.4389C104.061 23.1345 104.249 22.9062 104.589 22.9062C104.928 22.9443 105.117 23.1726 105.117 23.4389Z" fill="white"/>
<path d="M101.458 24.7324C100.666 24.7324 100.251 25.189 100.101 25.3793V24.8085H99.3086V29.1082H100.101V26.5969C100.101 26.0642 100.44 25.4934 101.194 25.4934C102.062 25.4934 102.288 26.2164 102.288 26.5969V29.1082H103.08V26.4447C103.118 25.7978 102.627 24.7324 101.458 24.7324Z" fill="white"/>
<path d="M108.36 24.7324C107.568 24.7324 107.153 25.189 107.002 25.3793V24.8085H106.21V29.1082H107.002V26.5969C107.002 26.0642 107.341 25.4934 108.096 25.4934C108.963 25.4934 109.189 26.2164 109.189 26.5969V29.1082H109.981V26.4447C110.019 25.7978 109.529 24.7324 108.36 24.7324Z" fill="white"/>
<path d="M147.318 24.7324C146.526 24.7324 146.111 25.189 145.96 25.3793V24.8085H145.168V29.1082H145.96V26.5969C145.96 26.0642 146.299 25.4934 147.054 25.4934C147.921 25.4934 148.147 26.2164 148.147 26.5969V29.1082H148.939V26.4447C148.977 25.7978 148.487 24.7324 147.318 24.7324Z" fill="white"/>
<path d="M149.957 28.3471C150.183 28.4993 150.598 28.6515 151.013 28.6515C151.579 28.6515 151.843 28.3471 151.843 28.0046C151.843 27.6241 151.617 27.4339 151.051 27.2056C150.259 26.9392 149.882 26.4826 149.882 25.9499C149.882 25.227 150.447 24.6562 151.39 24.6562C151.843 24.6562 152.22 24.7704 152.446 24.9226L152.258 25.4933C152.069 25.3792 151.767 25.227 151.353 25.227C150.9 25.227 150.636 25.4933 150.636 25.8358C150.636 26.2163 150.9 26.3685 151.466 26.5968C152.22 26.9012 152.597 27.2817 152.597 27.9285C152.597 28.6895 151.994 29.2603 150.975 29.2603C150.485 29.2603 150.07 29.1461 149.769 28.9559L149.957 28.3471Z" fill="white"/>
<path d="M114.318 24.8085V25.3793C114.167 25.189 113.753 24.7324 112.885 24.7324C111.603 24.7324 110.849 25.7978 110.849 26.8632C110.849 27.7764 111.452 29.0321 112.885 29.0321C113.753 29.0321 114.167 28.5755 114.318 28.3472V28.9179C114.318 29.4506 114.017 30.2116 112.923 30.2116C112.055 30.2116 111.641 29.755 111.452 29.5267L110.924 30.0594C111.301 30.5921 111.942 30.9726 112.885 30.9726C114.092 30.9726 115.11 30.2497 115.11 28.9179V24.8085H114.318ZM113.036 28.2711C112.357 28.2711 111.678 27.8145 111.678 26.8632C111.678 26.1783 112.131 25.4934 113.036 25.4934C113.903 25.4934 114.356 26.1403 114.356 26.9013C114.356 27.6242 113.903 28.2711 113.036 28.2711Z" fill="white"/>
<path d="M120.014 29.1843C118.656 29.1843 118.128 28.4233 117.826 28.1189L118.392 27.5482C118.58 27.8145 119.108 28.4233 120.014 28.3853C120.428 28.3853 121.22 28.2331 121.22 27.4721C121.22 26.8633 120.806 26.635 120.617 26.5589C120.428 26.4828 120.24 26.3687 120.014 26.2926C119.335 26.0262 118.166 25.7599 118.166 24.4281C118.166 23.3627 118.995 22.7539 120.127 22.7539C121.22 22.7539 121.786 23.3627 122.012 23.6291L121.447 24.1998C121.258 23.9715 120.881 23.553 120.127 23.553C119.184 23.553 119.033 24.0857 119.033 24.3901C119.033 25.075 119.674 25.2652 120.24 25.4935C120.466 25.5696 121.145 25.7979 121.484 26.1023C122.05 26.5589 122.088 27.0916 122.088 27.4721C122.125 28.8419 120.919 29.1843 120.014 29.1843Z" fill="white"/>
<path d="M131.817 29.1843C130.912 29.1843 130.007 28.5755 130.007 27.2818V24.8086H130.799V27.2818C130.799 27.8526 131.063 28.4233 131.817 28.4233C132.496 28.4233 132.835 27.9287 132.835 27.2818V24.8086H133.627V27.2818C133.627 28.4614 132.873 29.1843 131.817 29.1843Z" fill="white"/>
<path d="M97.6496 24.7324C96.7822 24.7324 96.5182 25.3032 96.4805 25.3412V24.8466H95.6885V29.1462H96.4805V26.711C96.4805 25.9881 96.8576 25.5315 97.4987 25.5315C97.9136 25.5315 98.0644 25.7217 98.1775 25.7978L98.7055 25.2651C98.5924 25.0368 98.2907 24.7324 97.6496 24.7324Z" fill="white"/>
<path d="M111.528 8.29492C109.491 8.29492 108.473 9.55057 108.096 10.1213C108.096 10.1213 108.096 10.1594 108.058 10.1594C108.058 10.1594 108.058 10.1213 108.021 10.1213C107.719 9.51252 106.663 8.29492 104.702 8.29492C102.816 8.29492 101.949 9.32227 101.647 9.70277V8.52322H99.7236V18.7967H101.647V12.5565C101.647 11.2248 102.59 10.1213 104.136 10.1213C105.72 10.1213 106.587 11.2248 106.587 12.5946V18.7967H108.511V12.5565C108.511 11.2248 109.529 10.1213 111.038 10.1213C112.546 10.1213 113.451 11.1867 113.451 12.5946V18.7967H115.412V12.2141C115.45 9.89302 113.828 8.29492 111.528 8.29492Z" fill="white"/>
</svg>
